<?xml version="1.0" encoding="UTF-8" standalone="no"?>
<svg width="24" height="24" version="1.1" viewBox="0 0 31.52 17.76" xmlns="http://www.w3.org/2000/svg" xmlns:xlink="http://www.w3.org/1999/xlink">
    <!--Generated by IJSVG (https://github.com/curthard89/IJSVG)-->
    <g fill="#8C9BA5">
        <path d="M31.2291,0.904345l1.09942e-07,1.10064e-07c-0.780614,-0.781483 -2.04694,-0.782187 -2.82843,-0.00157353c-0.000524729,0.000524146 -0.00104917,0.00104858 -0.00157331,0.00157331l-12.35,12.32l-12.34,-12.34l-1.83738e-08,-2.03493e-08c-0.740241,-0.819827 -2.00493,-0.884345 -2.82475,-0.144104c-0.819827,0.740241 -0.884345,2.00493 -0.144104,2.82475c0.0439721,0.0486997 0.0903141,0.0952061 0.138858,0.13935l13.75,13.76l1.92329e-08,1.92543e-08c0.780614,0.781483 2.04694,0.782187 2.82843,0.00157327c0.000524729,-0.000524146 0.00104917,-0.00104858 0.00157331,-0.00157331l13.77,-13.73l8.11059e-08,-8.10157e-08c0.781483,-0.780614 0.782187,-2.04694 0.00157315,-2.82843c-0.000524146,-0.000524729 -0.00104858,-0.00104917 -0.00157331,-0.00157331Z" transform="translate(-0.299099, -0.294345)"></path>
    </g>
</svg>