<?xml version="1.0" encoding="UTF-8" standalone="no"?>
<svg width="24" height="24" version="1.1" viewBox="0 0 97 54.34" xmlns="http://www.w3.org/2000/svg" xmlns:xlink="http://www.w3.org/1999/xlink">
    <!--Generated by IJSVG (https://github.com/curthard89/IJSVG)-->
    <g fill="#1562c5">
        <path d="M77.94,0h-50.77l-1.18764e-06,2.84217e-14c-15.0056,6.55915e-07 -27.17,12.1644 -27.17,27.17c6.55915e-07,15.0056 12.1644,27.17 27.17,27.17h39.67h-8.74228e-08c1.10457,4.82823e-08 2,-0.89543 2,-2c4.82823e-08,-1.10457 -0.89543,-2 -2,-2h-39.67l9.42721e-07,-5.68434e-14c-12.7964,9.66104e-07 -23.17,-10.3736 -23.17,-23.17c-9.66104e-07,-12.7964 10.3736,-23.17 23.17,-23.17c5.75933e-07,-4.26326e-14 1.07987e-06,-6.39488e-14 1.65581e-06,-6.75016e-14h50.77l-6.58512e-07,1.42109e-14c8.32017,-3.63686e-07 15.065,6.74483 15.065,15.065c3.63686e-07,8.32017 -6.74483,15.065 -15.065,15.065h-41.39l-2.19277e-07,-7.10543e-15c-4.31334,-1.88542e-07 -7.81,-3.49666 -7.81,-7.81c1.88542e-07,-4.31334 3.49666,-7.81 7.81,-7.81h24.75l-8.74228e-08,-3.55271e-15c1.10457,4.82823e-08 2,-0.89543 2,-2c4.82823e-08,-1.10457 -0.89543,-2 -2,-2h-24.75l-5.16232e-07,1.06581e-14c-6.52248,2.85107e-07 -11.81,5.28752 -11.81,11.81c2.85107e-07,6.52248 5.28752,11.81 11.81,11.81h41.39l-8.33358e-07,-2.13163e-14c10.5293,4.60251e-07 19.065,-8.53569 19.065,-19.065c4.60251e-07,-10.5293 -8.53569,-19.065 -19.065,-19.065Z" transform="translate(-6.55915e-07, 0)"></path>
    </g>
</svg>