<?xml version="1.0" encoding="UTF-8" standalone="no"?>
<svg width="24" height="24" version="1.1" viewBox="0 0 97 97" xmlns="http://www.w3.org/2000/svg" xmlns:xlink="http://www.w3.org/1999/xlink">
    <!--Generated by IJSVG (https://github.com/curthard89/IJSVG)-->
    <defs>
        <path id="path-1" d="M2,4h11h-8.74228e-08c1.10457,4.82823e-08 2,-0.89543 2,-2c4.82823e-08,-1.10457 -0.89543,-2 -2,-2h-11h-8.74228e-08c-1.10457,4.82823e-08 -2,0.895431 -2,2c4.82823e-08,1.10457 0.895431,2 2,2Z"></path>
    </defs>
    <g fill="#1562C5">
        <path d="M97,11.46v0c0,-1.65685 -1.34315,-3 -3,-3h-26.59v-6.46v0c0,-1.10457 -0.895431,-2 -2,-2c-1.10457,0 -2,0.895431 -2,2v6.46h-29.82v-6.46v0c0,-1.10457 -0.895431,-2 -2,-2c-1.10457,0 -2,0.895431 -2,2v6.46h-26.59h-1.31134e-07c-1.65685,7.24234e-08 -3,1.34315 -3,3c0,0 0,0 0,0v21.2l-3.85655e-08,-4.86501e-06c0.00270401,0.341143 0.0635764,0.679326 0.179998,1l5.42484e-08,-1.49422e-07c-0.116423,0.320674 -0.177295,0.658857 -0.18,1v59.34l2.84217e-14,4.52987e-07c2.50178e-07,1.65685 1.34315,3 3,3h91h-1.31134e-07c1.65685,7.24234e-08 3,-1.34315 3,-3v-59.34l3.86348e-08,4.87376e-06c-0.002704,-0.341143 -0.0635763,-0.679326 -0.179998,-1l3.93163e-08,-1.08293e-07c0.116423,-0.320674 0.177295,-0.658857 0.18,-1Zm-93,1h25.59v6.45l2.13163e-14,3.01992e-07c1.66785e-07,1.10457 0.895431,2 2,2c1.10457,-1.66785e-07 2,-0.895431 2,-2v-6.45h29.82v6.45l2.13163e-14,3.01992e-07c1.66785e-07,1.10457 0.895431,2 2,2c1.10457,-1.66785e-07 2,-0.895431 2,-2v-6.45h25.59v19.2h-89Zm89,80.54h-89v-57.34h89Z" transform="translate(-1.65903e-06, 0)"></path>
        <path d="M10,20l-4.37114e-07,-1.42109e-14c5.52285,2.41411e-07 10,-4.47715 10,-10c2.41411e-07,-5.52285 -4.47715,-10 -10,-10c-5.52285,-2.41411e-07 -10,4.47715 -10,10l1.06581e-13,-1.07284e-06c-8.33927e-07,5.52285 4.47715,10 10,10c1.35461e-07,1.42109e-14 3.01653e-07,4.26326e-14 4.37114e-07,5.68434e-14Zm0,-16l-2.62268e-07,7.10543e-15c3.31371,-1.44847e-07 6,2.68629 6,6c1.44847e-07,3.31371 -2.68629,6 -6,6c-3.31371,1.44847e-07 -6,-2.68629 -6,-6l6.03961e-14,6.43706e-07c-5.00356e-07,-3.31371 2.68629,-6 6,-6c8.12766e-08,-1.42109e-14 1.80992e-07,-2.84217e-14 2.62268e-07,-3.55271e-14Z" transform="translate(14, 46.33)"></path>
        <use transform="translate(42.25, 54.33)" xlink:href="#path-1"></use>
        <use transform="translate(68, 54.33)" xlink:href="#path-1"></use>
        <use transform="translate(42.25, 74.33)" xlink:href="#path-1"></use>
        <path d="M13,0h-11h-8.74228e-08c-1.10457,4.82823e-08 -2,0.895431 -2,2c4.82823e-08,1.10457 0.895431,2 2,2h11h-8.74228e-08c1.10457,4.82823e-08 2,-0.89543 2,-2c4.82823e-08,-1.10457 -0.89543,-2 -2,-2Z" transform="translate(16.5, 74.33)"></path>
        <use transform="translate(68, 74.33)" xlink:href="#path-1"></use>
    </g>
</svg>