<?xml version="1.0" encoding="UTF-8" standalone="no"?>
<svg width="24" height="24" version="1.1" viewBox="0 0 97 97" xmlns="http://www.w3.org/2000/svg" xmlns:xlink="http://www.w3.org/1999/xlink">
    <!--Generated by IJSVG (https://github.com/curthard89/IJSVG)-->
    <g fill="#1562c5">
        <path d="M94,8.46h-26.59v-6.46v0c0,-1.10457 -0.895431,-2 -2,-2c-1.10457,0 -2,0.895431 -2,2v6.46h-29.82v-6.46v0c0,-1.10457 -0.895431,-2 -2,-2c-1.10457,0 -2,0.895431 -2,2v6.46h-26.59h-1.31134e-07c-1.65685,7.24234e-08 -3,1.34315 -3,3c0,0 0,0 0,0v82.54l4.26326e-14,4.52987e-07c2.50178e-07,1.65685 1.34315,3 3,3h91h-1.31134e-07c1.65685,7.24234e-08 3,-1.34315 3,-3v-82.54v-7.10543e-15c0,-1.65685 -1.34315,-3 -3,-3Zm-90,4h25.59v6.45l2.13163e-14,3.01992e-07c1.66785e-07,1.10457 0.895431,2 2,2c1.10457,-1.66785e-07 2,-0.895431 2,-2v-6.45h29.82v6.45l2.13163e-14,3.01992e-07c1.66785e-07,1.10457 0.895431,2 2,2c1.10457,-1.66785e-07 2,-0.895431 2,-2v-6.45h25.59v19.2h-89Zm0,80.54v-57.34h89v57.34Z" transform="translate(-7.24234e-08, 0)"></path>
        <path d="M11.1527,0.336618l-2.39182e-08,-1.18994e-08c-0.676612,-0.336618 -1.48518,-0.263111 -2.09,0.19l-8,6l-1.55915e-07,1.16937e-07c-0.883656,0.662742 -1.06274,1.91634 -0.4,2.8c0.662742,0.883656 1.91634,1.06274 2.8,0.4l4.8,-3.6v24l2.13163e-14,3.01992e-07c1.66785e-07,1.10457 0.895431,2 2,2c1.10457,-1.66785e-07 2,-0.895431 2,-2v-28l4.34085e-08,8.51853e-05c-0.000370578,-0.758944 -0.430281,-1.45229 -1.10992,-1.79005Z" transform="translate(29.7373, 49.0334)"></path>
        <path d="M21,0.000619202h-19h-8.74228e-08c-1.10457,4.82823e-08 -2,0.895431 -2,2c4.82823e-08,1.10457 0.895431,2 2,2h15.76l-12.55,25.11l-7.3311e-08,1.46622e-07c-0.494295,0.98859 -0.0935895,2.19071 0.895,2.685c0.98859,0.494295 2.19071,0.0935895 2.685,-0.895l14,-28l-4.14032e-08,8.21646e-08c0.497058,-0.986411 0.10036,-2.189 -0.886051,-2.68606c-0.28035,-0.14127 -0.590018,-0.21456 -0.903949,-0.213941Z" transform="translate(45, 49.1594)"></path>
    </g>
</svg>