<?xml version="1.0" encoding="UTF-8" standalone="no"?>
<svg width="24" height="24" version="1.1" viewBox="0 0 96.05 95.68" xmlns="http://www.w3.org/2000/svg" xmlns:xlink="http://www.w3.org/1999/xlink">
    <!--Generated by IJSVG (https://github.com/curthard89/IJSVG)-->
    <g fill="#1562C5">
        <path d="M90.7228,34.3857c0.15,-0.16 0.29,-0.33 0.45,-0.49l0.1,-0.1l-6.08185e-07,6.86794e-07c3.22581,-3.64275 4.96414,-8.36517 4.87,-13.23l2.16677e-08,-1.84887e-06c0.0639747,-5.45889 -2.12879,-10.702 -6.06,-14.49l-0.09,-0.09l1.20901e-06,1.22165e-06c-3.78834,-3.82795 -8.96462,-5.95979 -14.35,-5.91l-7.14251e-07,-1.04351e-08c-4.82959,-0.0705596 -9.51044,1.67049 -13.12,4.88l-0.59,-0.18l-2.92494e-06,-9.29031e-07c-4.34906,-1.38136 -8.88686,-2.07637 -13.45,-2.06l-6.13693e-07,-3.53273e-09c-4.93699,-0.0284199 -9.84201,0.793593 -14.5,2.43l7.70829e-08,6.92222e-08c-3.68282,-3.30726 -8.47035,-5.11596 -13.42,-5.07l8.08004e-07,1.12309e-08c-5.44627,-0.0757009 -10.6834,2.0944 -14.48,6l-2.47668e-07,2.40853e-07c-3.90715,3.79964 -6.07728,9.0405 -6,14.49l-5.96392e-07,3.93027e-05c-0.0827919,5.45642 2.08778,10.7056 6.00003,14.51l0.0999718,-2.74034e-05l0.4,0.39l-6.65167e-09,2.73812e-08c-0.824642,3.39459 -1.2343,6.8767 -1.22,10.37l-9.33124e-07,6.17343e-05c-0.173122,11.4541 4.37675,22.4743 12.58,30.47l-2.62571e-07,-2.63644e-07c1.56089,1.56727 3.23181,3.02097 4.99998,4.34999l-6.75003,11.72l9.43793e-08,-1.48466e-07c-0.592575,0.932164 -0.317283,2.16821 0.614881,2.76078c0.932164,0.592575 2.16821,0.317283 2.76078,-0.614881c0.0301495,-0.0474275 0.0582866,-0.0961046 0.0843364,-0.145902l6.65,-11.47l-4.04957e-06,-2.45614e-06c6.68189,4.0527 14.3657,6.15206 22.18,6.06l-4.01213e-08,-4.1635e-10c6.99669,0.0726062 13.9001,-1.60856 20.08,-4.89l6.11,10.66l-8.15257e-08,-1.41447e-07c0.552285,0.958214 1.77679,1.28728 2.735,0.735c0.958214,-0.552285 1.28728,-1.77679 0.735,-2.735l-6.15,-10.66l-1.86038e-07,1.24209e-07c2.50345,-1.67144 4.8319,-3.59116 6.95,-5.73l3.97171e-07,-3.83466e-07c8.26307,-7.97795 12.8473,-19.0256 12.66,-30.51l-6.22066e-07,-0.00191667c-0.0012798,-3.7067 -0.447966,-7.39982 -1.33045,-10.9999Zm-3.51,-25.54l0.08,0.08l4.78187e-07,4.62823e-07c3.1489,3.04773 4.9032,7.25806 4.85,11.64l-8.74925e-08,-4.61365e-06c0.0674946,3.5591 -1.09055,7.03322 -3.28,9.84l5.92798e-07,1.50671e-06c-4.088,-10.3905 -11.944,-18.8571 -22,-23.71l-8.8269e-07,5.903e-07c2.59657,-1.73646 5.65644,-2.64954 8.78,-2.62l-1.79959e-07,2.71114e-09c4.34791,-0.0655026 8.53155,1.6593 11.57,4.77Zm-83.13,11.72l-7.21096e-08,-6.07429e-06c-0.0520157,-4.38171 1.7021,-8.59159 4.85,-11.64l1.73368e-07,-1.79023e-07c3.04601,-3.14536 7.25175,-4.89925 11.63,-4.85l8.20138e-07,-1.30866e-08c3.28562,-0.0524274 6.50439,0.930697 9.2,2.81l-2.9294e-06,1.40685e-06c-4.38849,2.10758 -8.38305,4.95214 -11.81,8.41l-1.74955e-06,1.7172e-06c-4.51196,4.42852 -7.95872,9.82434 -10.08,15.78l-1.07433e-06,-1.25876e-06c-2.49792,-2.92673 -3.84512,-6.66263 -3.79,-10.51Zm72,52.91l8.9099e-07,-9.08906e-07c-2.33706,2.38405 -4.96822,4.46076 -7.83,6.18v0l9.52799e-07,-5.67642e-07c-5.97973,3.5625 -12.8302,5.39713 -19.79,5.3l1.89339e-06,-2.6907e-08c-7.74106,0.110008 -15.3282,-2.16649 -21.73,-6.52l1.74399e-06,1.202e-06c-2.14807,-1.4805 -4.15642,-3.15412 -6,-5l3.02324e-07,2.92329e-07c-7.46447,-7.2177 -11.5845,-17.2189 -11.37,-27.6l-1.73625e-06,-0.000209095c-0.0293509,-3.53587 0.428298,-7.05895 1.36005,-10.47v0l6.90227e-07,-2.63632e-06c1.71015,-6.53191 5.16722,-12.4746 10,-17.19l-3.12872e-07,3.18806e-07c3.82103,-3.8935 8.43558,-6.91866 13.5299,-8.86981v0l1.74303e-06,-6.72472e-07c4.53816,-1.75085 9.36597,-2.62956 14.23,-2.59l1.91994e-06,-6.9376e-09c4.14572,-0.0149802 8.26847,0.615916 12.22,1.87h0.1l2.7714e-07,8.71434e-08c0.436229,0.137167 0.863689,0.300804 1.28,0.489999v0h0.06v0l-2.18346e-06,-8.12128e-07c5.23821,1.94833 9.98612,5.0203 13.91,9l-8.19169e-07,-8.04137e-07c4.29086,4.21212 7.54322,9.36453 9.5,15.05c0.1,0.26 0.18,0.53 0.26,0.79c0.08,0.26 0.19,0.58 0.29,0.87l9.77722e-08,3.65568e-07c0.959513,3.58759 1.44035,7.28633 1.43,11l5.39809e-07,2.32192e-05c0.242446,10.4286 -3.91313,20.4782 -11.45,27.69Z" transform="translate(-0.0827925, -0.0757009)"></path>
        <path d="M23.2302,46.46l-19.23,-15.24v-29.22v0c0,-1.10457 -0.895431,-2 -2,-2c-1.10457,0 -2,0.895431 -2,2v30.18l-3.92174e-08,0.000105493c-0.000211392,0.612055 0.279843,1.19051 0.760083,1.56996l20,15.85l-1.00642e-07,-7.07348e-08c0.903694,0.635147 2.15117,0.417446 2.78632,-0.486248c0.58416,-0.83115 0.452416,-1.9682 -0.306318,-2.64375Z" transform="translate(44.8998, 14.71)"></path>
    </g>
</svg>