<svg xmlns="http://www.w3.org/2000/svg" viewBox="0 0 29.64 32"><defs><style>.cls-1{fill:#1562c5;}.cls-2{fill:#1562c5;}</style></defs><title>contact</title><g id="Layer_2" data-name="Layer 2"><g id="Layer_1-2" data-name="Layer 1"><g id="ICONS"><path class="cls-1" d="M24.81,23v.63H9.55V23l5.7-3.42,0,0,.05,0,.07-.07,0,0,0-.06,0,0,0-.07a.06.06,0,0,1,0,0s0,0,0-.07v-.31s0,0,0,0l0-.07,0,0,0-.05-.09-.09a6,6,0,0,1-2-4.31V11c.28-1.38,2.1-2.63,3.85-2.63h0C19,8.39,20.75,9.63,21,11v3.15a6,6,0,0,1-2,4.32l0,0-.06,0,0,.06,0,0,0,.07a.08.08,0,0,1,0,0s0,0,0,.06v.31a.07.07,0,0,0,0,.06s0,0,0,.06l0,.05,0,.07h0a.3.3,0,0,0,.08.08l0,0,0,0Z"/><path class="cls-1" d="M27.66,0H4.39a2,2,0,0,0-2,2V5.54a.66.66,0,0,0,1.32,0V2a.66.66,0,0,1,.66-.66H27.66a.66.66,0,0,1,.66.66V30a.66.66,0,0,1-.66.66H4.39A.66.66,0,0,1,3.73,30V26.46a.66.66,0,0,0-1.32,0V30a2,2,0,0,0,2,2H27.66a2,2,0,0,0,2-2V2A2,2,0,0,0,27.66,0Z"/><path class="cls-2" d="M.66,9.66H5.49a.66.66,0,0,0,0-1.32H.66a.66.66,0,1,0,0,1.32Z"/><path class="cls-2" d="M.66,14.33H5.49a.66.66,0,0,0,0-1.32H.66a.66.66,0,1,0,0,1.32Z"/><path class="cls-2" d="M.66,19H5.49a.66.66,0,1,0,0-1.32H.66A.66.66,0,1,0,.66,19Z"/><path class="cls-2" d="M6.14,23a.66.66,0,0,0-.66-.66H.66a.66.66,0,0,0,0,1.32H5.49A.66.66,0,0,0,6.14,23Z"/></g></g></g></svg>