<?xml version="1.0" encoding="UTF-8" standalone="no"?>
<svg width="24" height="24" version="1.1" viewBox="0 0 72.5 97.82" xmlns="http://www.w3.org/2000/svg" xmlns:xlink="http://www.w3.org/1999/xlink">
    <!--Generated by IJSVG (https://github.com/curthard89/IJSVG)-->
    <g fill="#8c9ba5">
        <path d="M67.5,97.82h-62.5h-2.18557e-07c-2.76142,-1.20706e-07 -5,-2.23858 -5,-5c0,0 0,0 0,0v-87.82l5.68434e-14,7.54979e-07c-4.16963e-07,-2.76142 2.23858,-5 5,-5h38h-8.74228e-08c1.10457,-4.82823e-08 2,0.89543 2,2c4.82823e-08,1.10457 -0.89543,2 -2,2h-38h-4.37114e-08c-0.552285,2.41411e-08 -1,0.447715 -1,1v87.82l1.42109e-14,1.50996e-07c8.33927e-08,0.552285 0.447715,1 1,1h62.5h-4.37114e-08c0.552285,2.41411e-08 1,-0.447715 1,-1v-62.75l2.84217e-14,3.01992e-07c-1.66785e-07,-1.10457 0.89543,-2 2,-2c1.10457,-1.66785e-07 2,0.89543 2,2c0,0 0,0 0,0v62.75v0c0,2.76142 -2.23858,5 -5,5Z" transform="translate(-4.16963e-07, -4.82822e-08)"></path>
        <path d="M29.5,31.4962h-24.5l-2.18557e-07,-7.10543e-15c-2.76142,-1.20706e-07 -5,-2.23858 -5,-5c0,0 0,-3.55271e-15 0,-3.55271e-15v-24.5l1.52569e-08,-3.63305e-06c0.00463959,-1.10456 0.903823,-1.99622 2.00838,-1.99158c0.525467,0.00220717 1.02896,0.211125 1.40162,0.581588l27.5,27.5l-5.63786e-08,-5.67139e-08c0.77873,0.78336 0.774976,2.04968 -0.00838445,2.82841c-0.372664,0.370461 -0.876152,0.579377 -1.40162,0.581583Zm-25.5,-24.67v19.67l1.42109e-14,1.50996e-07c8.33927e-08,0.552285 0.447715,1 1,1h19.67Z" transform="translate(41, 0.00377514)"></path>
        <path d="M0.000834299,14.43v-0.07l-5.91694e-09,-4.28162e-06c-0.000834293,-0.604091 0.21974,-1.18754 0.620003,-1.64l8.28,-9.62h-7.08h-6.7756e-08c-0.85604,-3.74187e-08 -1.55,-0.693957 -1.55,-1.55l-2.53052e-08,1.99897e-06c0.0107791,-0.851536 0.698462,-1.53922 1.55,-1.55h10.19l-5.94515e-08,-7.52649e-10c0.851536,0.0107802 1.53922,0.698464 1.55,1.55v0.07l3.06795e-08,-2.012e-06c-0.00923764,0.60583 -0.236445,1.18805 -0.639999,1.64l-8.3,9.64h7.36l-5.89141e-08,-7.45828e-10c0.851536,0.0107802 1.53922,0.698464 1.55,1.55l6.50162e-08,-5.03898e-06c-0.0109429,0.848221 -0.701704,1.53007 -1.55,1.53001h-10.43l-7.90695e-08,-1.001e-09c-0.851536,-0.0107803 -1.53922,-0.698464 -1.55,-1.55Z" transform="translate(18.3792, 69.45)"></path>
        <path d="M1.46354e-07,1.755l2.13163e-14,2.64998e-07c-1.46354e-07,-0.96926 0.78574,-1.755 1.755,-1.755c0.96926,-1.46354e-07 1.755,0.78574 1.755,1.755c0,0 0,0 0,0v12.72v0c0,0.96926 -0.78574,1.755 -1.755,1.755c-0.96926,0 -1.755,-0.78574 -1.755,-1.755Z" transform="translate(35.29, 69.335)"></path>
        <path d="M0.0110591,1.76006l-6.06323e-08,-5.26761e-06c-0.011059,-0.960912 0.758949,-1.74885 1.71986,-1.75991c0.0100478,-0.000115639 0.0200964,-0.000144237 0.0301447,-8.5791e-05h4.76c3.81,0 6.11,2.26 6.11,5.52v0c0,3.69 -2.87,5.61 -6.45,5.61h-2.66001v3.17l5.68675e-08,-7.52827e-07c-0.0732164,0.96926 -0.91831,1.69565 -1.88757,1.62243c-0.867454,-0.0655261 -1.5569,-0.754976 -1.62243,-1.62243Zm6.29,6.29l-3.20578e-09,-4.05791e-10c1.35334,0.171312 2.58932,-0.786914 2.76063,-2.14026c0.0117477,-0.0928054 0.0182137,-0.186203 0.0193668,-0.279742v0c0,-1.57 -1.09,-2.42 -2.85,-2.42h-2.71v4.88Z" transform="translate(42.7789, 69.4599)"></path>
    </g>
</svg>