<?xml version="1.0" encoding="UTF-8" standalone="no"?>
<svg width="24" height="24" version="1.1" viewBox="0 0 82 97" xmlns="http://www.w3.org/2000/svg" xmlns:xlink="http://www.w3.org/1999/xlink">
    <!--Generated by IJSVG (https://github.com/curthard89/IJSVG)-->
    <g fill="#1562c5">
        <path d="M10.0148,0.00555051l1.00184e-07,1.00684e-10c-5.52284,-0.00555051 -10.0045,4.4671 -10.01,9.98994c-0.00478339,4.75955 3.34568,8.86293 8.01004,9.81006v24.2l2.13163e-14,2.59845e-07c1.66785e-07,1.10457 0.895431,2 2,2c1.10457,-1.66785e-07 2,-0.895431 2,-2v-24.2l5.37986e-07,-1.09241e-07c5.41239,-1.09902 8.90907,-6.37756 7.81005,-11.79c-0.947127,-4.66436 -5.05051,-8.01483 -9.81006,-8.01004Zm0,16h-2.62268e-07c-3.31371,-1.44847e-07 -6,-2.68629 -6,-6c1.44847e-07,-3.31371 2.68629,-6 6,-6c3.31371,1.44847e-07 6,2.68629 6,6l3.55271e-15,-2.62268e-07c0,3.31371 -2.68629,6 -6,6Z" transform="translate(-0.0148283, 50.9944)"></path>
        <path d="M10.0148,0.00555051l1.00184e-07,1.00684e-10c-5.52284,-0.00555051 -10.0045,4.4671 -10.01,9.98994c-0.00478339,4.75955 3.34568,8.86293 8.01004,9.81006v48.2l2.13163e-14,3.01992e-07c1.66785e-07,1.10457 0.895431,2 2,2c1.10457,-1.66785e-07 2,-0.895431 2,-2v-48.2l5.37986e-07,-1.09241e-07c5.41239,-1.09902 8.90907,-6.37756 7.81005,-11.79c-0.947127,-4.66436 -5.05051,-8.01483 -9.81006,-8.01004Zm0,16l-2.62268e-07,-7.10543e-15c-3.31371,-1.44847e-07 -6,-2.68629 -6,-6c1.44847e-07,-3.31371 2.68629,-6 6,-6c3.31371,1.44847e-07 6,2.68629 6,6l7.10543e-15,-2.62268e-07c0,3.31371 -2.68629,6 -6,6Z" transform="translate(30.9852, 26.9944)"></path>
        <path d="M20,9.99796l2.08299e-07,0.00204107c0,-5.52285 -4.47715,-10 -10,-10c-5.52285,0 -10,4.47715 -10,10c0,4.75115 3.34303,8.84637 7.998,9.79755v24.2004l2.84217e-14,3.01992e-07c1.66785e-07,1.10457 0.895431,2 2,2c1.10457,-1.66785e-07 2,-0.895431 2,-2v-24.2l2.16929e-07,-4.42342e-08c4.65746,-0.949709 8.00278,-5.0467 8.002,-9.8Zm-10,6h-2.62268e-07c-3.31371,-1.44847e-07 -6,-2.68629 -6,-6c1.44847e-07,-3.31371 2.68629,-6 6,-6c3.31371,1.44847e-07 6,2.68629 6,6v-2.62268e-07c0,3.31371 -2.68629,6 -6,6Z" transform="translate(62, 51.002)"></path>
        <path d="M2,45h-8.74228e-08c1.10457,4.82823e-08 2,-0.89543 2,-2v-41v0c0,-1.10457 -0.895431,-2 -2,-2c-1.10457,0 -2,0.895431 -2,2v41l2.84217e-14,3.01992e-07c1.66785e-07,1.10457 0.895431,2 2,2Z" transform="translate(70, 0)"></path>
        <path d="M2,45h-8.74228e-08c1.10457,4.82823e-08 2,-0.89543 2,-2v-41l1.77636e-15,5.96046e-08c0,-1.10457 -0.895431,-2 -2,-2c-1.10457,0 -2,0.89543 -2,2v41l2.30926e-14,3.01992e-07c1.66785e-07,1.10457 0.895431,2 2,2Z" transform="translate(8, 5.96046e-08)"></path>
        <path d="M2,22l-8.74228e-08,-3.55271e-15c1.10457,4.82823e-08 2,-0.89543 2,-2v-18v0c0,-1.10457 -0.895431,-2 -2,-2c-1.10457,0 -2,0.895431 -2,2v18l2.13163e-14,3.01992e-07c1.66785e-07,1.10457 0.895431,2 2,2Z" transform="translate(39, 0)"></path>
    </g>
</svg>