<?xml version="1.0" encoding="UTF-8" standalone="no"?>
<svg width="24" height="24" version="1.1" viewBox="0 0 98 84.13" xmlns="http://www.w3.org/2000/svg" xmlns:xlink="http://www.w3.org/1999/xlink">
    <!--Generated by IJSVG (https://github.com/curthard89/IJSVG)-->
    <g fill="#1562c5">
        <path d="M14.014,45.0399l3.70638e-07,-2.91905e-10c-7.73198,0.0060895 -14.0049,-6.25699 -14.011,-13.989c-0.00293135,-3.722 1.47637,-7.29197 4.11102,-9.92103l17.11,-17.12l-5.08057e-07,5.12981e-07c3.94077,-3.97897 10.361,-4.00993 14.34,-0.0691618c3.97897,3.94077 4.00993,10.361 0.0691618,14.34c-0.019625,0.0198152 -0.0393317,0.0395494 -0.0591195,0.059202l-14,14l1.7229e-07,-1.5497e-07c-2.74293,2.46718 -6.96656,2.24364 -9.43374,-0.499286c-2.2937,-2.55006 -2.28344,-6.42284 0.0237425,-8.96071l8.35,-8.34l-8.43685e-09,8.43686e-09c0.781483,-0.781483 2.04852,-0.781483 2.83,-1.68737e-08c0.781483,0.781483 0.781483,2.04852 1.68737e-08,2.83l-8.35,8.31l1.82977e-07,-1.85549e-07c-1.03927,1.05389 -1.02743,2.75073 0.0264571,3.79c1.0435,1.02903 2.72005,1.02903 3.76354,3.65953e-07l14,-14l2.43773e-07,-2.86769e-07c2.1963,-2.58367 1.88227,-6.4586 -0.701407,-8.6549c-2.32157,-1.97349 -5.73923,-1.94587 -8.02859,0.0648966l-17.12,17.08l-4.21843e-08,4.21843e-08c-3.90741,3.90741 -3.90741,10.2426 8.43685e-08,14.15c3.90741,3.90741 10.2426,3.90741 14.15,-8.43685e-08l13.38,-13.39l-8.43684e-09,8.43686e-09c0.781483,-0.781483 2.04852,-0.781483 2.83,-1.68737e-08c0.781483,0.781483 0.781483,2.04852 1.68737e-08,2.83l-13.38,13.38l1.03075e-07,-1.03828e-07c-2.61842,2.63756 -6.18345,4.11759 -9.9,4.11Z" transform="translate(33.426, 27.1201)"></path>
        <path fill="none" stroke="#8C9BA5" stroke-linecap="round" stroke-linejoin="round" stroke-width="4" d="M2,23.45"></path>
        <path d="M89.66,84.1302h-82.38l-2.06601e-07,-2.83208e-10c-4.01835,-0.00550848 -7.27449,-3.26165 -7.28,-7.28v-74.85l2.84217e-14,3.01992e-07c-1.66785e-07,-1.10457 0.89543,-2 2,-2c0,0 2.83194e-10,0 2.83194e-10,0h22.18l1.05393e-07,-4.04157e-11c0.647246,-0.000248168 1.2546,0.312742 1.63,0.84l6.26,8.79h57.59h-8.74228e-08c1.10457,-4.82823e-08 2,0.89543 2,2v6.84v0c0,1.10457 -0.895431,2 -2,2c-1.10457,0 -2,-0.895431 -2,-2v-4.84h-56.66l-4.18196e-08,1.60298e-11c-0.647246,0.000248188 -1.2546,-0.312742 -1.63,-0.84l-6.22,-8.79h-19.15v72.85l4.26326e-14,-4.95266e-07c-2.73528e-07,1.81149 1.46851,3.28 3.28,3.28h82.38h-8.74228e-08c1.10457,-4.82823e-08 2,0.89543 2,2c4.82823e-08,1.10457 -0.89543,2 -2,2Z" transform="translate(-1.67069e-07, -0.000248168)"></path>
        <path d="M83.61,67.37h-81.61h-8.74228e-08c-1.10457,-4.82823e-08 -2,-0.895431 -2,-2c0,0 0,0 0,0v-63.37l2.84217e-14,3.01992e-07c-1.66785e-07,-1.10457 0.89543,-2 2,-2h86.61l-8.74228e-08,7.10543e-15c1.10457,-4.82823e-08 2,0.89543 2,2v58.37v0c0,3.86599 -3.13401,7 -7,7Zm-79.61,-4h79.61h-1.31134e-07c1.65685,7.24234e-08 3,-1.34315 3,-3v-56.37h-82.61Z" transform="translate(7.39, 16.47)"></path>
    </g>
</svg>
