<svg id="Layer_1" data-name="Layer 1" xmlns="http://www.w3.org/2000/svg" viewBox="0 0 32 32"><defs><style>.cls-1{fill:#fff;}.cls-2{fill:#a1c0e8;}</style></defs><path class="cls-1" d="M22.07,20.41v6.67a2.09,2.09,0,0,1-2.21,2.16V22.62h-1.1v8.83H13.24V22.62h-1.1v6.62a2.09,2.09,0,0,1-2.21-2.16V20.41c0-2.18,4-3.31,6.07-3.31S22.07,18.23,22.07,20.41Z"/><path class="cls-1" d="M16,8.32a3.34,3.34,0,0,0-3.31,3.37v.94a3.31,3.31,0,1,0,6.62,0v-.94A3.34,3.34,0,0,0,16,8.32Zm2.21,4.31a2.21,2.21,0,1,1-4.42,0v-.94a2.21,2.21,0,1,1,4.42,0Z"/><path class="cls-2" d="M11.59.55A3.34,3.34,0,0,0,8.28,3.92v.94a3.31,3.31,0,1,0,6.62,0V3.92A3.35,3.35,0,0,0,11.59.55Zm2.2,4.31a2.21,2.21,0,1,1-4.41,0V3.92a2.21,2.21,0,1,1,4.41,0Z"/><path class="cls-2" d="M20.41.55A3.35,3.35,0,0,0,17.1,3.92v.94a3.31,3.31,0,1,0,6.62,0V3.92A3.34,3.34,0,0,0,20.41.55Zm2.21,4.31a2.21,2.21,0,1,1-4.41,0V3.92a2.21,2.21,0,1,1,4.41,0Z"/><rect class="cls-1" x="2.76" y="22.62" width="1.1" height="8.83"/><path class="cls-1" d="M6.62,8.28a3.34,3.34,0,0,0-3.31,3.36v.94a3.31,3.31,0,1,0,6.62,0v-.94A3.34,3.34,0,0,0,6.62,8.28Zm2.21,4.3a2.21,2.21,0,1,1-4.42,0v-.94a2.21,2.21,0,1,1,4.42,0Z"/><path class="cls-1" d="M2.76,29.84A2.67,2.67,0,0,1,0,27.08V20.41c0-2.57,4.24-3.86,6.62-3.86a10.91,10.91,0,0,1,3.5.67l-.38,1a9.74,9.74,0,0,0-3.12-.6c-1.89,0-5.52,1.07-5.52,2.76v6.67a1.58,1.58,0,0,0,1.66,1.66Z"/><rect class="cls-1" x="28.14" y="22.62" width="1.1" height="8.83"/><path class="cls-1" d="M25.38,8.28a3.34,3.34,0,0,0-3.31,3.36v.94a3.31,3.31,0,1,0,6.62,0v-.94A3.34,3.34,0,0,0,25.38,8.28Zm2.21,4.3a2.21,2.21,0,1,1-4.42,0v-.94a2.21,2.21,0,1,1,4.42,0Z"/><path class="cls-1" d="M29.24,29.84v-1.1a1.58,1.58,0,0,0,1.65-1.66V20.41c0-1.68-3.62-2.76-5.52-2.76a9.73,9.73,0,0,0-3.12.6l-.38-1a10.9,10.9,0,0,1,3.5-.67c2.38,0,6.62,1.29,6.62,3.86v6.67A2.67,2.67,0,0,1,29.24,29.84Z"/></svg>