<?xml version="1.0" encoding="UTF-8" standalone="no"?>
<svg width="24" height="24" version="1.1" viewBox="0 0 95.82 95.82" xmlns="http://www.w3.org/2000/svg" xmlns:xlink="http://www.w3.org/1999/xlink">
    <!--Generated by IJSVG (https://github.com/curthard89/IJSVG)-->
    <g fill="#1562c5">
        <path d="M52.1593,15.4562l-2.92524e-08,3.86635e-09c-1.09505,0.144734 -1.86543,1.14977 -1.72069,2.24482c0.000228215,0.00172665 0.000458686,0.00345301 0.000691411,0.00517906l2.27524e-08,1.65929e-07c0.638425,4.65589 -0.94208,9.34189 -4.27,12.66l-14.62,14.61l-1.76211e-07,1.76128e-07c-5.87907,5.87631 -15.4087,5.87407 -21.285,-0.00500035c-5.87631,-5.87907 -5.87407,-15.4087 0.00500035,-21.285l14.59,-14.61l2.1283e-07,-2.14458e-07c3.31216,-3.33749 8.00305,-4.91964 12.66,-4.27l-1.52165e-07,-2.01618e-08c1.10457,0.146356 2.11864,-0.63043 2.265,-1.735c0.146356,-1.10457 -0.63043,-2.11864 -1.735,-2.265c0,0 -4.21469e-08,-5.58446e-09 -4.21469e-08,-5.58446e-09l1.02027e-06,1.39722e-07c-5.88667,-0.806153 -11.8105,1.19683 -16,5.41l-14.61,14.65l-8.03141e-08,8.03141e-08c-7.43928,7.43928 -7.43928,19.5007 1.60628e-07,26.94c7.43928,7.43928 19.5007,7.43928 26.94,-1.60628e-07l14.62,-14.62l-8.51318e-08,8.45649e-08c4.21589,-4.18782 6.21935,-10.113 5.41,-16l9.84097e-09,7.74071e-08c-0.139306,-1.09575 -1.14052,-1.8711 -2.23627,-1.7318c-0.00458017,0.000582289 -0.00915831,0.00118044 -0.0137343,0.00179443Z" transform="translate(-1.85928, 42.4338)"></path>
        <path d="M47.7794,7.42795l1.05144e-06,1.04918e-06c-7.44396,-7.42795 -19.496,-7.42795 -26.94,-2.10182e-06l-14.62,14.62l5.11805e-07,-5.08396e-07c-4.21589,4.18782 -6.21935,10.113 -5.41,16l-1.35041e-08,-1.01917e-07c0.146355,1.10457 1.16043,1.88136 2.265,1.735c1.10457,-0.146355 1.88136,-1.16043 1.735,-2.265c-3.72297e-09,-2.80979e-08 -1.86149e-09,-1.4049e-08 -5.58446e-09,-4.21468e-08l-6.00753e-07,-4.32418e-06c-0.646162,-4.65104 0.92299,-9.33628 4.24,-12.66l14.61,-14.6l6.27169e-07,-6.27464e-07c5.87631,-5.87907 15.4059,-5.88131 21.285,-0.00499875c5.87907,5.87631 5.88131,15.4059 0.00499875,21.285l-14.62,14.62l1.38182e-07,-1.39146e-07c-3.31302,3.33612 -8.0032,4.91803 -12.66,4.27l-2.2681e-08,-3.00523e-09c-1.10457,-0.146355 -2.11864,0.630431 -2.265,1.735c-0.146355,1.10457 0.630431,2.11864 1.735,2.265c0,0 4.21469e-08,5.58445e-09 4.21469e-08,5.58445e-09l-2.7634e-07,-3.66831e-08c0.858611,0.113978 1.72385,0.170769 2.58999,0.17l9.95232e-07,1.35162e-09c5.04195,0.00684736 9.87741,-2.00223 13.43,-5.58l14.62,-14.65l7.70651e-07,-7.72312e-07c7.42795,-7.44396 7.42795,-19.496 -1.53784e-06,-26.94Z" transform="translate(42.4706, -1.85795)"></path>
        <path d="M0.782187,23.3315l1.92329e-08,1.92543e-08c0.780614,0.781483 2.04694,0.782187 2.82843,0.00157327c0.000524729,-0.000524146 0.00104917,-0.00104858 0.00157331,-0.00157331l19.72,-19.72l1.37755e-07,-1.37755e-07c0.781483,-0.781483 0.781483,-2.04852 -2.75511e-07,-2.83c-0.781483,-0.781483 -2.04852,-0.781483 -2.83,2.75511e-07l-19.72,19.72l-3.6128e-08,3.60878e-08c-0.781483,0.780614 -0.782187,2.04694 -0.00157324,2.82843c0.000524146,0.000524729 0.00104858,0.00104917 0.00157331,0.00157331Z" transform="translate(36.5878, 34.3885)"></path>
    </g>
</svg>