<?xml version="1.0" encoding="UTF-8" standalone="no"?>
<svg width="24" height="24" version="1.1" viewBox="0 0 97 43.18" xmlns="http://www.w3.org/2000/svg" xmlns:xlink="http://www.w3.org/1999/xlink">
    <!--Generated by IJSVG (https://github.com/curthard89/IJSVG)-->
    <g fill="#1562c5">
        <path d="M36,39.18h-14.41l-7.68883e-07,-1.42109e-14c-9.71469,-4.24643e-07 -17.59,-7.87531 -17.59,-17.59c4.24643e-07,-9.71469 7.87531,-17.59 17.59,-17.59h14.41h-8.74228e-08c1.10457,4.82823e-08 2,-0.89543 2,-2c4.82823e-08,-1.10457 -0.89543,-2 -2,-2h-14.41l-9.43729e-07,2.13163e-14c-11.9238,5.21207e-07 -21.59,9.66617 -21.59,21.59c5.21207e-07,11.9238 9.66617,21.59 21.59,21.59h14.41h-8.74228e-08c1.10457,4.82823e-08 2,-0.89543 2,-2c4.82823e-08,-1.10457 -0.89543,-2 -2,-2Z" transform="translate(-5.21207e-07, 2.13163e-14)"></path>
        <path d="M16.41,1.42109e-14h-14.41h-8.74228e-08c-1.10457,4.82823e-08 -2,0.895431 -2,2c4.82823e-08,1.10457 0.895431,2 2,2h14.41l-7.68883e-07,1.42109e-14c9.71469,-4.24643e-07 17.59,7.87531 17.59,17.59c4.24643e-07,9.71469 -7.87531,17.59 -17.59,17.59h-14.41h-8.74228e-08c-1.10457,4.82823e-08 -2,0.895431 -2,2c4.82823e-08,1.10457 0.895431,2 2,2h14.41l-2.36976e-07,-1.42109e-14c11.9238,5.21207e-07 21.59,-9.66617 21.59,-21.59c5.21207e-07,-11.9238 -9.66617,-21.59 -21.59,-21.59c-4.04422e-07,-1.77636e-14 -9.60503e-07,-2.4869e-14 -1.36493e-06,-1.77636e-14Z" transform="translate(59, -1.42109e-14)"></path>
        <path d="M4.82823e-08,2l2.13163e-14,3.01992e-07c1.66785e-07,1.10457 0.895431,2 2,2h45l-8.74228e-08,-3.55271e-15c1.10457,4.82823e-08 2,-0.89543 2,-2c4.82823e-08,-1.10457 -0.89543,-2 -2,-2h-45l-8.74228e-08,3.55271e-15c-1.10457,4.82823e-08 -2,0.895431 -2,2c0,0 0,1.77636e-14 0,1.77636e-14Z" transform="translate(24, 19.59)"></path>
    </g>
</svg>