<svg id="Layer_1" data-name="Layer 1" xmlns="http://www.w3.org/2000/svg" viewBox="0 0 32 32"><defs><style>.cls-1{fill:#fff;}</style></defs><path class="cls-1" d="M23.19,12.16a27.26,27.26,0,0,0-5-4.69l3.29-6.12a.67.67,0,0,0-.2-.86A3,3,0,0,0,19.5-.13,6.48,6.48,0,0,0,17,.55a6.2,6.2,0,0,1-2.25.62A2.35,2.35,0,0,1,14,1,12.15,12.15,0,0,0,9.92,0,4.56,4.56,0,0,0,6.8,1.29a.65.65,0,0,0-.12.87l3.54,5.37a27.94,27.94,0,0,0-4.87,4.63A21.47,21.47,0,0,0,0,26a5.83,5.83,0,0,0,5.82,5.82H22.73a5.79,5.79,0,0,0,4.12-1.71A5.72,5.72,0,0,0,28.54,26,21.43,21.43,0,0,0,23.19,12.16ZM8.14,1.94a3,3,0,0,1,1.78-.55,11.14,11.14,0,0,1,3.61.91,3.79,3.79,0,0,0,1.26.22,7.21,7.21,0,0,0,2.77-.74,5.65,5.65,0,0,1,1.94-.57A1.67,1.67,0,0,1,20,1.3L16.87,7.18H11.6ZM25.9,29.21a4.43,4.43,0,0,1-3.17,1.32H5.82A4.49,4.49,0,0,1,1.34,26a20.22,20.22,0,0,1,5-13,26.66,26.66,0,0,1,4.76-4.49H17.4A26.08,26.08,0,0,1,22.16,13a20.18,20.18,0,0,1,5,13A4.46,4.46,0,0,1,25.9,29.21Z"/><path class="cls-1" d="M18.37,23.1a2.83,2.83,0,0,1-2.83,2.82h-.6v1.69a.67.67,0,0,1-1.34,0V25.92h-2a.67.67,0,0,1,0-1.34h3.92a1.48,1.48,0,1,0,0-3H13A2.83,2.83,0,1,1,13,16h.6V14.19a.67.67,0,1,1,1.34,0V16h1.67a.67.67,0,0,1,0,1.34H13a1.48,1.48,0,1,0,0,3h2.54A2.83,2.83,0,0,1,18.37,23.1Z"/></svg>