<?xml version="1.0" encoding="UTF-8" standalone="no"?>
<svg width="24" height="24" version="1.1" viewBox="0 0 96 95.76" xmlns="http://www.w3.org/2000/svg" xmlns:xlink="http://www.w3.org/1999/xlink">
    <!--Generated by IJSVG (https://github.com/curthard89/IJSVG)-->
    <g fill="#1562c5">
        <path d="M56.95,6.51394l-4.72,-4.74l2.71977e-07,2.736e-07c-1.12495,-1.13166 -2.65433,-1.7686 -4.25,-1.77v0l-2.85007e-07,-7.00098e-10c-1.6026,-0.0039366 -3.14017,0.633417 -4.27,1.77l-5.5,5.52l-0.13,0.14l-2,2l-30.31,30.42l1.17186e-08,-1.17951e-08c-0.17216,0.173284 -0.31112,0.376641 -0.41,0.6c-1.86,3 -5.36,13.46 -2.93,15.89l4.07855e-09,2.98643e-09c0.835828,0.612015 1.86993,0.890154 2.9,0.78c4.17,0 11,-2.32 13.15,-3.64l6.37063e-08,-3.23096e-08c0.192724,-0.0977428 0.368334,-0.226073 0.52,-0.38l28.5,-28.6l3.94,-4l0.12,-0.13l5.39,-5.37l2.43318e-07,-2.43047e-07c2.34445,-2.34184 2.34656,-6.14083 0.00471945,-8.48528c-0.00157244,-0.00157419 -0.00314575,-0.0031475 -0.00471994,-0.00471994Zm-51.43,46.67l-1.47687e-06,1.20843e-05c0.358779,-2.93565 1.09485,-5.81274 2.18999,-8.55999l6.5,6.52l-1.28977e-06,4.64759e-07c-2.80853,1.01204 -5.72448,1.69656 -8.68997,2.03998Zm39.19,-31.49l-27.13,27.18l-7.57,-7.6l28.93,-29l0.69,-0.69l7.57,7.6Zm9.46,-9.49l-4.1,4.11l-7.57,-7.6l4.11,-4.12l-7.25047e-08,7.29992e-08c0.363497,-0.365976 0.854337,-0.57736 1.37,-0.59v0l-8.76334e-08,6.94413e-11c0.533045,-0.000422399 1.0442,0.211961 1.42,0.59l4.72,4.74l7.94019e-08,7.70844e-08c0.792529,0.769397 0.81128,2.03559 0.0418831,2.82812c-0.0137535,0.014167 -0.0277161,0.0281295 -0.0418831,0.0418831Z" transform="translate(37.29, -0.0039366)"></path>
        <path d="M79.3,29.62h-8.74228e-08c-1.10457,4.82823e-08 -2,0.895431 -2,2c0,0 0,7.10543e-15 0,7.10543e-15v45.67h-73.3v-73.29h45h-8.74228e-08c1.10457,4.82823e-08 2,-0.89543 2,-2c4.82823e-08,-1.10457 -0.89543,-2 -2,-2h-47h-8.74228e-08c-1.10457,4.82823e-08 -2,0.895431 -2,2v77.3l2.84217e-14,-3.01992e-07c-1.66785e-07,1.10457 0.89543,2 2,2h77.3h-8.74228e-08c1.10457,4.82823e-08 2,-0.89543 2,-2v-47.68v0c0,-1.10457 -0.895431,-2 -2,-2Z" transform="translate(-1.66785e-07, 14.47)"></path>
    </g>
</svg>