<?xml version="1.0" encoding="UTF-8" standalone="no"?>
<svg width="24" height="24" version="1.1" viewBox="0 0 22.42 96" xmlns="http://www.w3.org/2000/svg" xmlns:xlink="http://www.w3.org/1999/xlink">
    <!--Generated by IJSVG (https://github.com/curthard89/IJSVG)-->
    <g fill="#1562c5">
        <path d="M11.21,22.42l-4.90005e-07,-1.06581e-14c6.19111,2.70622e-07 11.21,-5.01889 11.21,-11.21c2.70622e-07,-6.19111 -5.01889,-11.21 -11.21,-11.21c-6.19111,-2.70622e-07 -11.21,5.01889 -11.21,11.21l-4.38451e-07,-0.000504939c0.00523465,6.18883 5.02067,11.2047 11.2095,11.2105Zm0,-19.42l-3.58871e-07,8.88178e-15c4.53426,-1.98199e-07 8.21,3.67574 8.21,8.21c1.98199e-07,4.53426 -3.67574,8.21 -8.21,8.21c-4.53426,1.98199e-07 -8.21,-3.67574 -8.21,-8.21l-1.95317e-07,0.000161967c0.00542051,-4.53197 3.67786,-8.20456 8.20984,-8.21016Z" transform="translate(-4.38451e-07, -2.70622e-07)"></path>
        <path d="M11.21,0l-4.90005e-07,7.10543e-15c-6.19111,2.70622e-07 -11.21,5.01889 -11.21,11.21c2.70622e-07,6.19111 5.01889,11.21 11.21,11.21c6.19111,-2.70622e-07 11.21,-5.01889 11.21,-11.21l4.40213e-07,0.000506971c-0.00523407,-6.18883 -5.02067,-11.2047 -11.2095,-11.2105Zm0,19.42l-3.58871e-07,-7.10543e-15c-4.53426,-1.98199e-07 -8.21,-3.67574 -8.21,-8.21c1.98199e-07,-4.53426 3.67574,-8.21 8.21,-8.21c4.53426,1.98199e-07 8.21,3.67574 8.21,8.21l1.96372e-07,-0.000162836c-0.00542042,4.53197 -3.67786,8.20456 -8.20984,8.21016Z" transform="translate(-2.70622e-07, 36.79)"></path>
        <path d="M11.21,0h-4.90005e-07c-6.19111,2.70622e-07 -11.21,5.01889 -11.21,11.21c2.70622e-07,6.19111 5.01889,11.21 11.21,11.21c6.19111,-2.70622e-07 11.21,-5.01889 11.21,-11.21l4.40213e-07,0.000506971c-0.00523407,-6.18883 -5.02067,-11.2047 -11.2095,-11.2105Zm0,19.42l-3.58871e-07,-1.42109e-14c-4.53426,-1.98199e-07 -8.21,-3.67574 -8.21,-8.21c1.98199e-07,-4.53426 3.67574,-8.21 8.21,-8.21c4.53426,1.98199e-07 8.21,3.67574 8.21,8.21l1.96372e-07,-0.000162836c-0.00542042,4.53197 -3.67786,8.20456 -8.20984,8.21016Z" transform="translate(-2.70622e-07, 73.58)"></path>
    </g>
</svg>