<svg id="Layer_1" data-name="Layer 1" xmlns="http://www.w3.org/2000/svg" viewBox="0 0 32 32"><defs><style>.cls-1{fill:#fff;}.cls-2{fill:#a1c0e8;}</style></defs><path class="cls-1" d="M11,22.58A5.49,5.49,0,0,0,11.22,21a5.63,5.63,0,1,0-.78,2.84l8.85,3.54A4.94,4.94,0,0,1,19.5,26Zm-1.36-.14a3.07,3.07,0,0,1-.22.49,4.28,4.28,0,1,1,.49-2A4.1,4.1,0,0,1,9.62,22.44Z"/><path class="cls-2" d="M23.92,22.76A4.64,4.64,0,0,0,19.5,26a4.94,4.94,0,0,0-.21,1.34v.05a4.63,4.63,0,1,0,4.63-4.62Zm0,7.91a3.3,3.3,0,1,1,3.29-3.29A3.29,3.29,0,0,1,23.92,30.67Z"/><path class="cls-1" d="M25.4,0a6.59,6.59,0,0,0-5.55,10.16L9.21,16.92A.66.66,0,0,0,9.92,18L20.68,11.2A6.6,6.6,0,1,0,25.4,0Zm0,11.87A5.27,5.27,0,1,1,30.67,6.6,5.28,5.28,0,0,1,25.4,11.87Z"/></svg>