<svg id="Layer_1" data-name="Layer 1" xmlns="http://www.w3.org/2000/svg" viewBox="0 0 32 32"><defs><style>.cls-1{fill:#fff;}</style></defs><path class="cls-1" d="M26.41,16.53a5.59,5.59,0,0,0-5.59,5.59c0,2.9,4.58,8,5.11,8.54a.65.65,0,0,0,.48.21.68.68,0,0,0,.48-.21C27.41,30.09,32,25,32,22.12A5.6,5.6,0,0,0,26.41,16.53Zm0,7.82a2.23,2.23,0,1,1,2.23-2.23A2.24,2.24,0,0,1,26.41,24.35Z"/><path class="cls-1" d="M31.72,8.74,27.32.35A.65.65,0,0,0,26.75,0H5a.65.65,0,0,0-.58.35L.07,8.74a.14.14,0,0,0,0,.07L0,8.9A.59.59,0,0,0,0,9v0a4.6,4.6,0,0,0,2.46,4.11V27.84a.65.65,0,0,0,.65.65H20a.65.65,0,0,0,0-1.3H14.68V16.73a.65.65,0,0,0-.65-.65H7.6a.65.65,0,0,0-.65.65V27.19H3.76V13.6a4,4,0,0,0,.7.06,4.43,4.43,0,0,0,3.81-2.22,4.38,4.38,0,0,0,7.62,0,4.4,4.4,0,0,0,3.8,2.21,4.45,4.45,0,0,0,3.82-2.21,4.4,4.4,0,0,0,3.8,2.21,4.52,4.52,0,0,0,4.45-4.42A.63.63,0,0,0,31.72,8.74ZM8.25,17.38h5.13v9.81H8.25Zm-6.52-9L5.44,1.31H26.35L30.07,8.4Z"/></svg>