<svg xmlns="http://www.w3.org/2000/svg" viewBox="0 0 31 31"><defs><style>.cls-1{fill:#fff;}.cls-2{fill:#a1c0e8;}</style></defs><title>email_marketing</title><g id="Layer_2" data-name="Layer 2"><g id="Layer_1-2" data-name="Layer 1"><path class="cls-1" d="M29.35,15.15l-.7.7-5.06-5.06-.51.44a3.19,3.19,0,0,1-4.16,0l-.51-.44-2.06,2.06-.7-.7,2-2-5-4.27.66-.76,6.24,5.35a2.26,2.26,0,0,0,2.86,0l6.24-5.35.66.76-5,4.27Z"/><rect class="cls-1" x="4" y="3.5" width="5.5" height="1"/><rect class="cls-1" x="20.5" y="26.5" width="5.5" height="1"/><rect class="cls-1" x="2" y="3.5" width="1" height="1"/><rect class="cls-1" y="3.5" width="1" height="1"/><rect class="cls-1" x="5.5" y="9" width="1" height="1"/><rect class="cls-1" x="27" y="26.5" width="1" height="1"/><rect class="cls-1" x="29" y="26.5" width="1" height="1"/><rect class="cls-2" x="9" y="30" width="14" height="1"/><rect class="cls-2" x="24" y="30" width="1" height="1"/><rect class="cls-2" x="26" y="30" width="1" height="1"/><rect class="cls-2" x="8.5" width="14" height="1"/><rect class="cls-2" x="6.5" width="1" height="1"/><rect class="cls-2" x="4.5" width="1" height="1"/><rect class="cls-1" x="23" y="20.5" width="1" height="1"/><path class="cls-1" d="M29,3.5H13a2,2,0,0,0-2,2V9H7.5v1h6V9H12V5.5a1,1,0,0,1,1-1H29a1,1,0,0,1,1,1v10a1,1,0,0,1-1,1H18v-1a1,1,0,0,0-1-1H12V11H11v3.5H1a1,1,0,0,0-1,1v10a1,1,0,0,0,1,1H17a1,1,0,0,0,1-1v-4h4.5v-1H18v-3H29a2,2,0,0,0,2-2V5.5A2,2,0,0,0,29,3.5ZM16.65,25.85l-5.08-5.08-.47.44a3.19,3.19,0,0,1-4.18,0l-.51-.44L1.35,25.85l-.7-.7,5-5-5-4.27.66-.76,6.24,5.35a2.26,2.26,0,0,0,2.86,0l3.19-3,.53-.5.54-.5,1.47-1.37.68.74-.68.63-.53.5-.54.5L12.3,20.1l5,5Z"/></g></g></svg>