<svg xmlns="http://www.w3.org/2000/svg" viewBox="0 0 30.78 32"><defs><style>.cls-1{fill:#fff;}.cls-2{fill:#a1c0e8;}</style></defs><title>mail</title><g id="Layer_2" data-name="Layer 2"><g id="Layer_1-2" data-name="Layer 1"><path class="cls-1" d="M29.69,11.41,26.47,8.52V4.3H21.78L18.22,1.09a4.23,4.23,0,0,0-5.66,0L9,4.3H4.31V8.52L1.13,11.38A3,3,0,0,0,0,13.7V29.54A2.46,2.46,0,0,0,2.46,32H28.32a2.46,2.46,0,0,0,2.46-2.46V13.7A3,3,0,0,0,29.69,11.41ZM13.39,2a3,3,0,0,1,4,0l2.55,2.3h-9.1ZM1.62,14.28l-.17-.13H1.23V13.7a1.87,1.87,0,0,1,.69-1.38l2.39-2.14v6.31l-.9-.74Zm8.27,8.26L8.53,24,8,24.61l-.57.62-.58.61-3.27,3.5-.9-.84,2.49-2.66.57-.61.58-.62L6.84,24l2.07-2.21.42-.45,0,0,.44.41.46.43Zm5.5.23A9.68,9.68,0,0,1,11,21.86c-.41-.24-3.17-2.47-5.5-4.36v-12h19.7v12c-2.33,1.9-5.08,4.13-5.5,4.37A9.65,9.65,0,0,1,15.39,22.77Zm11.85,6.57L24,25.84l-.57-.61-.58-.62L22.24,24l-1.36-1.44-.38-.42.35-.33,0,0,.53-.49,0,0,.43.46L23.92,24l.58.61.57.62.58.61,2.48,2.66Zm2.31-15.19h-.22l-.17.13-1.78,1.46-.91.75V10.17l2.42,2.18a1.8,1.8,0,0,1,.66,1.35Z"/><rect class="cls-2" x="9.23" y="10.45" width="11.7" height="1.23"/><rect class="cls-2" x="9.23" y="12.91" width="11.7" height="1.23"/><rect class="cls-2" x="9.23" y="15.38" width="8" height="1.23"/></g></g></svg>