<?xml version="1.0" encoding="UTF-8" standalone="no"?>
<svg width="24" height="24" version="1.1" viewBox="0 0 119.5 71.64" xmlns="http://www.w3.org/2000/svg" xmlns:xlink="http://www.w3.org/1999/xlink">
    <!--Generated by IJSVG (https://github.com/curthard89/IJSVG)-->
    <g fill="#1562c5">
        <path d="M109,0.0165709h-76l-3.98173e-07,-1.14107e-09c-5.7824,-0.0165709 -10.4834,4.65756 -10.5,10.44c-1.91506e-05,0.00668256 -3.19034e-05,0.0133651 -3.82583e-05,0.0200477v10.54h-14.5h-8.74228e-08c-1.10457,4.82823e-08 -2,0.895431 -2,2c4.82823e-08,1.10457 0.895431,2 2,2h14.5v11h-20.5h-8.74228e-08c-1.10457,4.82823e-08 -2,0.895431 -2,2c4.82823e-08,1.10457 0.895431,2 2,2h22.5h-8.74228e-08c1.10457,4.82823e-08 2,-0.89543 2,-2v-27.54l3.95157e-09,8.10475e-06c-0.000536856,-1.09968 0.281845,-2.181 0.819996,-3.14l42.42,34.28l6.49085e-09,5.23108e-09c0.732527,0.590356 1.77747,0.590356 2.51,-1.04622e-08l42.43,-34.29l2.11635e-08,3.77138e-08c0.538152,0.959001 0.820535,2.04032 0.82,3.14v50.73l1.18702e-09,0.00012384c0,3.56776 -2.89224,6.46 -6.46,6.46c-0.0133747,0 -0.0267494,-4.15363e-05 -0.0401238,-0.000124608h-75.9999l4.97882e-08,7.70228e-11c-3.55995,-0.00550648 -6.44449,-2.89005 -6.45,-6.45v0c0,-1.10457 -0.895431,-2 -2,-2c-1.10457,0 -2,0.895431 -2,2l-3.43744e-07,-0.000180947c0.0109053,5.76681 4.68301,10.4391 10.4498,10.4502h76.0002l-5.1681e-07,-1.48108e-09c5.7824,0.0165714 10.4834,-4.65755 10.5,-10.44c1.91508e-05,-0.00668245 3.19041e-05,-0.0133649 3.82597e-05,-0.0200474v-50.72l3.6615e-07,0.000392761c-0.00528219,-5.78242 -4.69714,-10.4657 -10.4796,-10.4604c-0.00668259,6.10448e-06 -0.0133652,1.86068e-05 -0.0200477,3.7507e-05Zm-38,37.47l-40.7,-32.89l1.59778e-07,-7.30955e-08c0.847067,-0.387518 1.76852,-0.585459 2.7,-0.58h76l-3.50186e-07,-7.90403e-10c0.914596,0.00206431 1.81816,0.199825 2.65,0.58Z" transform="translate(-4.82823e-08, -0.0165709)"></path>
        <path d="M40,2v0c0,-1.10457 -0.895431,-2 -2,-2h-36h-8.74228e-08c-1.10457,4.82823e-08 -2,0.895431 -2,2c4.82823e-08,1.10457 0.895431,2 2,2h36h-8.74228e-08c1.10457,4.82823e-08 2,-0.89543 2,-2Z" transform="translate(6, 50)"></path>
    </g>
</svg>