<?xml version="1.0" encoding="UTF-8" standalone="no"?>
<svg width="24" height="24" version="1.1" viewBox="0 0 89.02 98" xmlns="http://www.w3.org/2000/svg" xmlns:xlink="http://www.w3.org/1999/xlink">
    <!--Generated by IJSVG (https://github.com/curthard89/IJSVG)-->
    <g fill="#1562c5">
        <path d="M89.9024,54.26l5.08797e-09,-1.27837e-08c0.181466,-0.455941 0.181466,-0.964059 -1.01759e-08,-1.42l8.66755e-08,5.5795e-06c-0.364292,-23.4504 -18.8931,-42.579 -42.32,-43.69v-5.15h7.1h-8.74228e-08c1.10457,4.82823e-08 2,-0.89543 2,-2c4.82823e-08,-1.10457 -0.89543,-2 -2,-2h-18.19h-8.74228e-08c-1.10457,4.82823e-08 -2,0.895431 -2,2c4.82823e-08,1.10457 0.895431,2 2,2h7.1v5.14l-8.74813e-07,3.5674e-08c-24.5232,1.00003 -43.5924,21.6907 -42.5924,46.2138c0.455367,11.1667 5.10144,21.7519 13.0124,29.6462l-4.56444e-06,-4.58465e-06c8.32497,8.36185 19.6507,13.0434 31.45,13h0.15l-1.82188e-06,5.52083e-09c24.2165,-0.0733826 43.914,-19.5263 44.29,-43.74Zm-42.32,39.68v-4v0c0,-1.10457 -0.895431,-2 -2,-2c-1.10457,0 -2,0.895431 -2,2v4l1.50336e-06,6.8407e-08c-20.8276,-0.947708 -37.5249,-17.5671 -38.57,-38.39h4.19h-8.74228e-08c1.10457,4.82823e-08 2,-0.89543 2,-2c4.82823e-08,-1.10457 -0.89543,-2 -2,-2h-4.19l-9.69014e-07,1.95886e-05c1.03055,-20.8328 17.7331,-37.4661 38.57,-38.41v4l2.13163e-14,3.01992e-07c1.66785e-07,1.10457 0.895431,2 2,2c1.10457,-1.66785e-07 2,-0.895431 2,-2v-4l-8.20432e-08,-4.10017e-09c9.99287,0.4994 19.4395,4.71096 26.49,11.81v0l-4.15583e-07,-4.13132e-07c7.12118,7.07917 11.3313,16.5697 11.8,26.6h-3.86h-8.74228e-08c-1.10457,4.82823e-08 -2,0.895431 -2,2c4.82823e-08,1.10457 0.895431,2 2,2h3.9l1.28877e-06,-2.59895e-05c-1.02752,20.7213 -17.562,37.3076 -38.28,38.4Z" transform="translate(-1.01241, 0)"></path>
        <path d="M5.07148,7.90148l3.08563e-08,2.80598e-08c0.817202,0.743138 2.08211,0.683098 2.82525,-0.134104c0.691942,-0.760903 0.693998,-1.92255 0.00475374,-2.6859l-4.29,-4.3l1.37755e-07,1.37755e-07c-0.781483,-0.781483 -2.04852,-0.781483 -2.83,-2.75511e-07c-0.781483,0.781483 -0.781483,2.04852 -2.75511e-07,2.83c0,0 0,0 0,0Z" transform="translate(15.8185, 24.9185)"></path>
        <path d="M3.61148,0.781483l1.37755e-07,1.37755e-07c-0.781483,-0.781483 -2.04852,-0.781483 -2.83,-2.75511e-07c-0.781483,0.781483 -0.781483,2.04852 -2.75511e-07,2.83c0,0 0,0 0,0l4.29,4.29l-8.43684e-09,-8.43686e-09c0.781483,0.781483 2.04852,0.781483 2.83,1.68737e-08c0.781483,-0.781483 0.781483,-2.04852 1.68737e-08,-2.83c0,0 0,0 0,0Z" transform="translate(64.3885, 73.4985)"></path>
        <path d="M5.22665,0.781482l-4.29,4.3l-2.08919e-07,1.78914e-07c-0.838969,0.718474 -0.936648,1.98103 -0.218174,2.82c0.718474,0.838969 1.98103,0.936648 2.82,0.218174c0.0782339,-0.0669978 0.151175,-0.139939 0.218173,-0.218173l4.29,-4.29l1.37755e-07,-1.37755e-07c0.781483,-0.781483 0.781483,-2.04852 -2.75511e-07,-2.83c-0.781483,-0.781483 -2.04852,-0.781483 -2.83,2.75511e-07Z" transform="translate(64.2434, 24.9185)"></path>
        <path d="M5.07148,0.781483l-4.29,4.29l-8.43685e-09,8.43684e-09c-0.781483,0.781483 -0.781483,2.04852 1.68737e-08,2.83c0.781483,0.781483 2.04852,0.781483 2.83,-1.68737e-08l4.29,-4.29l1.37755e-07,-1.37755e-07c0.781483,-0.781483 0.781483,-2.04852 -2.75511e-07,-2.83c-0.781483,-0.781483 -2.04852,-0.781483 -2.83,2.75511e-07Z" transform="translate(15.8185, 73.4985)"></path>
        <path d="M9.43622,17v-15v0c0,-1.10457 -0.895431,-2 -2,-2c-1.10457,0 -2,0.895431 -2,2v15l-2.40714e-07,7.19282e-08c-3.46603,1.03569 -5.43622,4.68506 -4.40053,8.1511c1.03569,3.46603 4.68506,5.43622 8.1511,4.40053c3.46603,-1.03569 5.43622,-4.68506 4.40053,-8.1511c-0.605309,-2.02572 -2.15119,-3.63471 -4.1511,-4.32053Zm-2.12,8.74l6.25424e-09,-3.82272e-12c-1.4028,0.000857145 -2.54069,-1.13564 -2.54155,-2.53845c-0.000474072,-0.775867 0.353687,-1.5094 0.961552,-1.99155l-1.68658e-07,-2.71563e-07c0.582762,0.938329 1.81585,1.22657 2.75418,0.643811c0.216289,-0.13433 0.404941,-0.308722 0.55582,-0.51381l4.49892e-08,4.13534e-08c1.03279,0.949321 1.10045,2.55614 0.151126,3.58892c-0.483616,0.526136 -1.1665,0.824202 -1.88113,0.821078Z" transform="translate(37.1338, 30.36)"></path>
    </g>
</svg>