<?xml version="1.0" encoding="UTF-8" standalone="no"?>
<svg width="24" height="24" version="1.1" viewBox="0 0 96.51 96.51" xmlns="http://www.w3.org/2000/svg" xmlns:xlink="http://www.w3.org/1999/xlink">
    <!--Generated by IJSVG (https://github.com/curthard89/IJSVG)-->
    <defs>
        <path id="path-2" d="M8,0h-6h-8.74228e-08c-1.10457,4.82823e-08 -2,0.895431 -2,2c4.82823e-08,1.10457 0.895431,2 2,2h6h-8.74228e-08c1.10457,4.82823e-08 2,-0.89543 2,-2c4.82823e-08,-1.10457 -0.89543,-2 -2,-2Z"></path>
        <path id="path-1" d="M34.83,0h-32.83h-8.74228e-08c-1.10457,4.82823e-08 -2,0.895431 -2,2c4.82823e-08,1.10457 0.895431,2 2,2h32.83h-8.74228e-08c1.10457,4.82823e-08 2,-0.89543 2,-2c4.82823e-08,-1.10457 -0.89543,-2 -2,-2Z"></path>
    </defs>
    <g fill="#1562c5">
        <path d="M4.82823e-08,2l1.42109e-14,3.01992e-07c1.66785e-07,1.10457 0.895431,2 2,2h32.83h-8.74228e-08c1.10457,4.82823e-08 2,-0.89543 2,-2c4.82823e-08,-1.10457 -0.89543,-2 -2,-2h-32.83h-8.74228e-08c-1.10457,4.82823e-08 -2,0.895431 -2,2c0,0 0,2.13163e-14 0,2.13163e-14Z" transform="translate(22.38, 34.32)"></path>
        <use transform="translate(22.38, 49.24)" xlink:href="#path-1"></use>
        <use transform="translate(22.38, 64.16)" xlink:href="#path-1"></use>
        <use transform="translate(22.38, 79.08)" xlink:href="#path-1"></use>
        <use transform="translate(10.41, 34.32)" xlink:href="#path-2"></use>
        <use transform="translate(10.41, 49.24)" xlink:href="#path-2"></use>
        <use transform="translate(10.41, 64.16)" xlink:href="#path-2"></use>
        <use transform="translate(10.41, 79.08)" xlink:href="#path-2"></use>
        <path d="M67.65,10.44h-18.21l-0.74,-3l9.27909e-08,3.18202e-07c-0.250928,-0.86049 -1.04371,-1.44895 -1.94,-1.44h-4v-4v0c0,-1.10457 -0.895431,-2 -2,-2h-11.9h-8.74228e-08c-1.10457,4.82823e-08 -2,0.895431 -2,2c0,0 0,0 0,0v4h-4l4.0011e-08,1.90852e-11c-0.916196,-0.000436946 -1.71553,0.621726 -1.94,1.51l-0.74,3h-18.18h-8.74228e-08c-1.10457,4.82823e-08 -2,0.895431 -2,2c0,0 0,0 0,0v82l2.84217e-14,-3.01992e-07c-1.66785e-07,1.10457 0.89543,2 2,2h65.65h-8.74228e-08c1.10457,4.82823e-08 2,-0.89543 2,-2v-82.07v1.77636e-15c0,-1.10457 -0.895431,-2 -2,-2Zm-38.79,-0.44l-8.74228e-08,-1.77636e-15c1.10457,4.82823e-08 2,-0.89543 2,-2v-4h7.94v4l2.13163e-14,3.01992e-07c1.66785e-07,1.10457 0.895431,2 2,2h4.4l2,7.94h-24.73l2,-7.94Zm36.79,82.51h-61.65v-78.07h15.21l-1.24,5l-1.11148e-09,4.70225e-09c-0.254088,1.07495 0.411351,2.15234 1.4863,2.40643c0.145435,0.0343767 0.294264,0.0523448 0.443702,0.0535676h29.85l-4.81965e-08,3.72467e-11c1.10457,-0.0008536 1.99931,-0.896976 1.99845,-2.00154c-0.000124619,-0.161258 -0.0197517,-0.32191 -0.0584538,-0.478455l-1.24,-5h15.2Z" transform="translate(-1.66785e-07, 0)"></path>
        <path d="M13.94,0h-11.94h-8.74228e-08c-1.10457,4.82823e-08 -2,0.895431 -2,2c0,0 0,0 0,0v79.08l-6.61227e-08,-6.28805e-05c0.000319975,0.308903 0.072189,0.613534 0.209972,0.890006l6,11.94l-5.44116e-08,-1.09173e-07c0.492711,0.98859 1.69354,1.39058 2.68213,0.897868c0.388874,-0.193814 0.704054,-0.508994 0.897868,-0.897868l5.94003,-11.9099l2.54152e-08,-5.09936e-08c0.137792,-0.276468 0.20967,-0.581097 0.21,-0.89v-79.11v0c0,-1.10457 -0.895431,-2 -2,-2Zm-2,4v10.92h-7.94v-10.92Zm-4,84.54l-4,-7.94v-61.68h7.94v61.69Z" transform="translate(80.57, 0)"></path>
    </g>
</svg>